%TF.GenerationSoftware,KiCad,Pcbnew,7.0.6*%
%TF.CreationDate,2023-07-16T08:24:51+09:00*%
%TF.ProjectId,FddPurserPcb,46646450-7572-4736-9572-5063622e6b69,R6*%
%TF.SameCoordinates,Original*%
%TF.FileFunction,Soldermask,Bot*%
%TF.FilePolarity,Negative*%
%FSLAX46Y46*%
G04 Gerber Fmt 4.6, Leading zero omitted, Abs format (unit mm)*
G04 Created by KiCad (PCBNEW 7.0.6) date 2023-07-16 08:24:51*
%MOMM*%
%LPD*%
G01*
G04 APERTURE LIST*
G04 Aperture macros list*
%AMRoundRect*
0 Rectangle with rounded corners*
0 $1 Rounding radius*
0 $2 $3 $4 $5 $6 $7 $8 $9 X,Y pos of 4 corners*
0 Add a 4 corners polygon primitive as box body*
4,1,4,$2,$3,$4,$5,$6,$7,$8,$9,$2,$3,0*
0 Add four circle primitives for the rounded corners*
1,1,$1+$1,$2,$3*
1,1,$1+$1,$4,$5*
1,1,$1+$1,$6,$7*
1,1,$1+$1,$8,$9*
0 Add four rect primitives between the rounded corners*
20,1,$1+$1,$2,$3,$4,$5,0*
20,1,$1+$1,$4,$5,$6,$7,0*
20,1,$1+$1,$6,$7,$8,$9,0*
20,1,$1+$1,$8,$9,$2,$3,0*%
G04 Aperture macros list end*
%ADD10C,1.500000*%
%ADD11R,1.800000X1.800000*%
%ADD12C,1.800000*%
%ADD13C,1.524000*%
%ADD14RoundRect,0.450000X-0.450000X1.550000X-0.450000X-1.550000X0.450000X-1.550000X0.450000X1.550000X0*%
%ADD15R,2.200000X2.200000*%
%ADD16O,2.200000X2.200000*%
%ADD17C,1.600000*%
%ADD18O,1.600000X1.600000*%
%ADD19R,2.400000X1.600000*%
%ADD20O,2.400000X1.600000*%
%ADD21R,1.050000X1.500000*%
%ADD22O,1.050000X1.500000*%
%ADD23C,1.400000*%
%ADD24C,4.200000*%
%ADD25R,1.200000X1.200000*%
%ADD26C,1.200000*%
%ADD27C,4.300000*%
%ADD28O,1.800000X1.800000*%
%ADD29O,1.500000X1.500000*%
%ADD30O,1.700000X1.700000*%
%ADD31R,1.700000X1.700000*%
%ADD32C,1.650000*%
%ADD33C,4.562000*%
%ADD34R,1.600000X1.600000*%
%ADD35R,2.460000X4.500000*%
%ADD36R,2.460000X4.000000*%
%ADD37R,4.000000X2.460000*%
%ADD38R,1.600000X2.400000*%
%ADD39O,1.600000X2.400000*%
%ADD40C,1.300000*%
G04 APERTURE END LIST*
D10*
%TO.C,S2*%
X75490000Y-123440000D03*
X81990000Y-123440000D03*
X75490000Y-127940000D03*
X81990000Y-127940000D03*
%TD*%
D11*
%TO.C,D3*%
X87630000Y-137160000D03*
D12*
X90170000Y-137160000D03*
%TD*%
D13*
%TO.C,LCD1*%
X72285000Y-57115000D03*
X72285000Y-59655000D03*
X72285000Y-62195000D03*
X72285000Y-64735000D03*
X72285000Y-67275000D03*
X72285000Y-69815000D03*
X72285000Y-72355000D03*
X72285000Y-74895000D03*
X72285000Y-77435000D03*
D14*
X75045000Y-49305000D03*
X75035000Y-85285000D03*
%TD*%
D15*
%TO.C,D1*%
X146050000Y-138390000D03*
D16*
X146050000Y-128230000D03*
%TD*%
D17*
%TO.C,R9*%
X165100000Y-77470000D03*
D18*
X175260000Y-77470000D03*
%TD*%
D19*
%TO.C,J6*%
X146050000Y-111125000D03*
D20*
X146050000Y-108585000D03*
X146050000Y-106045000D03*
X146050000Y-103505000D03*
X146050000Y-100965000D03*
X146050000Y-98425000D03*
X146050000Y-95885000D03*
X146050000Y-93345000D03*
X146050000Y-90805000D03*
X146050000Y-88265000D03*
X146050000Y-85725000D03*
X146050000Y-83185000D03*
X146050000Y-80645000D03*
X146050000Y-78105000D03*
X146050000Y-75565000D03*
X146050000Y-73025000D03*
X146050000Y-70485000D03*
X146050000Y-67945000D03*
X146050000Y-65405000D03*
X146050000Y-62865000D03*
X146050000Y-60325000D03*
X146050000Y-57785000D03*
X146050000Y-55245000D03*
X146050000Y-52705000D03*
X130810000Y-52705000D03*
X130810000Y-55245000D03*
X130810000Y-57785000D03*
X130810000Y-60325000D03*
X130810000Y-62865000D03*
X130810000Y-65405000D03*
X130810000Y-67945000D03*
X130810000Y-70485000D03*
X130810000Y-73025000D03*
X130810000Y-75565000D03*
X130810000Y-78105000D03*
X130810000Y-80645000D03*
X130810000Y-83185000D03*
X130810000Y-85725000D03*
X130810000Y-88265000D03*
X130810000Y-90805000D03*
X130810000Y-93345000D03*
X130810000Y-95885000D03*
X130810000Y-98425000D03*
X130810000Y-100965000D03*
X130810000Y-103505000D03*
X130810000Y-106045000D03*
X130810000Y-108585000D03*
X130810000Y-111125000D03*
%TD*%
D17*
%TO.C,R3*%
X124587000Y-106604000D03*
D18*
X114427000Y-106604000D03*
%TD*%
D10*
%TO.C,S1*%
X75490000Y-112990000D03*
X81990000Y-112990000D03*
X75490000Y-117490000D03*
X81990000Y-117490000D03*
%TD*%
%TO.C,S3*%
X75490000Y-133600000D03*
X81990000Y-133600000D03*
X75490000Y-138100000D03*
X81990000Y-138100000D03*
%TD*%
D21*
%TO.C,Q1*%
X134620000Y-123190000D03*
D22*
X135890000Y-123190000D03*
X137160000Y-123190000D03*
%TD*%
D23*
%TO.C,J1*%
X207010000Y-87590000D03*
X209550000Y-87590000D03*
X207010000Y-90130000D03*
X209550000Y-90130000D03*
X207010000Y-92670000D03*
X209550000Y-92670000D03*
X207010000Y-95210000D03*
X209550000Y-95210000D03*
X207010000Y-97750000D03*
X209550000Y-97750000D03*
X207010000Y-100290000D03*
X209550000Y-100290000D03*
X207010000Y-102830000D03*
X209550000Y-102830000D03*
X207010000Y-105370000D03*
X209550000Y-105370000D03*
X207010000Y-107910000D03*
X209550000Y-107910000D03*
X207010000Y-110450000D03*
X209550000Y-110450000D03*
X207010000Y-112990000D03*
X209550000Y-112990000D03*
X207010000Y-115530000D03*
X209550000Y-115530000D03*
X207010000Y-118070000D03*
X209550000Y-118070000D03*
X207010000Y-120610000D03*
X209550000Y-120610000D03*
X207010000Y-123150000D03*
X209550000Y-123150000D03*
X207010000Y-125690000D03*
X209550000Y-125690000D03*
X207010000Y-128230000D03*
X209550000Y-128230000D03*
D24*
X208790000Y-134060000D03*
X208790000Y-81760000D03*
%TD*%
D23*
%TO.C,S5*%
X124420000Y-138430000D03*
X121920000Y-138430000D03*
X119420000Y-138430000D03*
%TD*%
D17*
%TO.C,R4*%
X124587000Y-101854000D03*
D18*
X114427000Y-101854000D03*
%TD*%
D25*
%TO.C,J2*%
X158750000Y-97750000D03*
D26*
X156210000Y-97750000D03*
X158750000Y-95210000D03*
X156210000Y-95210000D03*
X158750000Y-92670000D03*
X156210000Y-92670000D03*
X158750000Y-90130000D03*
X156210000Y-90130000D03*
X158750000Y-87590000D03*
X156210000Y-87590000D03*
X158750000Y-85050000D03*
X156210000Y-85050000D03*
X158750000Y-82510000D03*
X156210000Y-82510000D03*
X158750000Y-79970000D03*
X156210000Y-79970000D03*
X158750000Y-77430000D03*
X156210000Y-77430000D03*
X158750000Y-74890000D03*
X156210000Y-74890000D03*
X158750000Y-72350000D03*
X156210000Y-72350000D03*
X158750000Y-69810000D03*
X156210000Y-69810000D03*
X158750000Y-67270000D03*
X156210000Y-67270000D03*
X158750000Y-64730000D03*
X156210000Y-64730000D03*
X158750000Y-62190000D03*
X156210000Y-62190000D03*
X158750000Y-59650000D03*
X156210000Y-59650000D03*
X158750000Y-57110000D03*
X156210000Y-57110000D03*
%TD*%
D25*
%TO.C,J4*%
X184880000Y-84010000D03*
D26*
X182880000Y-83010000D03*
X184880000Y-82010000D03*
X182880000Y-81010000D03*
X184880000Y-80010000D03*
X182880000Y-79010000D03*
X184880000Y-78010000D03*
X182880000Y-77010000D03*
X184880000Y-76010000D03*
X182880000Y-75010000D03*
X184880000Y-74010000D03*
X182880000Y-73010000D03*
X184880000Y-72010000D03*
X182880000Y-71010000D03*
X184880000Y-70010000D03*
X182880000Y-69010000D03*
X184880000Y-68010000D03*
X182880000Y-67010000D03*
X184880000Y-66010000D03*
X182880000Y-65010000D03*
X184880000Y-64010000D03*
X182880000Y-63010000D03*
X184880000Y-62010000D03*
X182880000Y-61010000D03*
X184880000Y-60010000D03*
X182880000Y-59010000D03*
%TD*%
D13*
%TO.C,U3*%
X110600000Y-118160000D03*
X108060000Y-118160000D03*
X105520000Y-118160000D03*
X102980000Y-118160000D03*
X100440000Y-118160000D03*
X97900000Y-118160000D03*
%TD*%
D27*
%TO.C,H3*%
X199390000Y-137160000D03*
%TD*%
D17*
%TO.C,C3*%
X68580000Y-69850000D03*
X68580000Y-67310000D03*
%TD*%
D28*
%TO.C,U1*%
X110305000Y-47080000D03*
D29*
X110605000Y-50110000D03*
X115455000Y-50110000D03*
D28*
X115755000Y-47080000D03*
D30*
X104140000Y-46950000D03*
X104140000Y-49490000D03*
D31*
X104140000Y-52030000D03*
D30*
X104140000Y-54570000D03*
X104140000Y-57110000D03*
X104140000Y-59650000D03*
X104140000Y-62190000D03*
D31*
X104140000Y-64730000D03*
D30*
X104140000Y-67270000D03*
X104140000Y-69810000D03*
X104140000Y-72350000D03*
X104140000Y-74890000D03*
D31*
X104140000Y-77430000D03*
D30*
X104140000Y-79970000D03*
X104140000Y-82510000D03*
X104140000Y-85050000D03*
X104140000Y-87590000D03*
D31*
X104140000Y-90130000D03*
D30*
X104140000Y-92670000D03*
X104140000Y-95210000D03*
X121920000Y-95210000D03*
X121920000Y-92670000D03*
D31*
X121920000Y-90130000D03*
D30*
X121920000Y-87590000D03*
X121920000Y-85050000D03*
X121920000Y-82510000D03*
X121920000Y-79970000D03*
D31*
X121920000Y-77430000D03*
D30*
X121920000Y-74890000D03*
X121920000Y-72350000D03*
X121920000Y-69810000D03*
X121920000Y-67270000D03*
D31*
X121920000Y-64730000D03*
D30*
X121920000Y-62190000D03*
X121920000Y-59650000D03*
X121920000Y-57110000D03*
X121920000Y-54570000D03*
D31*
X121920000Y-52030000D03*
D30*
X121920000Y-49490000D03*
X121920000Y-46950000D03*
X110490000Y-94980000D03*
D31*
X113030000Y-94980000D03*
D30*
X115570000Y-94980000D03*
%TD*%
D17*
%TO.C,R5*%
X87950000Y-43100000D03*
D18*
X77790000Y-43100000D03*
%TD*%
D32*
%TO.C,U2*%
X86240000Y-102310000D03*
X86240000Y-97310000D03*
X86240000Y-99810000D03*
D33*
X78740000Y-105410000D03*
X78740000Y-94210000D03*
%TD*%
D23*
%TO.C,J5*%
X176530000Y-135810000D03*
X174030000Y-134560000D03*
X176530000Y-133310000D03*
X174030000Y-132060000D03*
X176530000Y-130810000D03*
X174030000Y-129560000D03*
X176530000Y-128310000D03*
X174030000Y-127060000D03*
X176530000Y-125810000D03*
X174030000Y-124560000D03*
X176530000Y-123310000D03*
X174030000Y-122060000D03*
X176530000Y-120810000D03*
X174030000Y-119560000D03*
X176530000Y-118310000D03*
X174030000Y-117060000D03*
X176530000Y-115810000D03*
X174030000Y-114560000D03*
X176530000Y-113310000D03*
X174030000Y-112060000D03*
X176530000Y-110810000D03*
X174030000Y-109560000D03*
X176530000Y-108310000D03*
X174030000Y-107060000D03*
%TD*%
D34*
%TO.C,C5*%
X196215000Y-50165000D03*
D17*
X196215000Y-46665000D03*
%TD*%
D26*
%TO.C,LS1*%
X137160000Y-135810000D03*
X137160000Y-130810000D03*
%TD*%
D27*
%TO.C,H1*%
X64770000Y-45720000D03*
%TD*%
D17*
%TO.C,C4*%
X165100000Y-107950000D03*
X165100000Y-110490000D03*
%TD*%
%TO.C,R7*%
X165100000Y-64770000D03*
D18*
X175260000Y-64770000D03*
%TD*%
D35*
%TO.C,J7*%
X203550000Y-57150000D03*
D36*
X209550000Y-57150000D03*
D37*
X206500000Y-52250000D03*
%TD*%
D17*
%TO.C,R8*%
X165100000Y-71120000D03*
D18*
X175260000Y-71120000D03*
%TD*%
D27*
%TO.C,H2*%
X64770000Y-137160000D03*
%TD*%
D31*
%TO.C,JP1*%
X132100000Y-46330000D03*
D30*
X134640000Y-46330000D03*
%TD*%
D17*
%TO.C,R11*%
X175260000Y-92075000D03*
D18*
X165100000Y-92075000D03*
%TD*%
D17*
%TO.C,R1*%
X151330000Y-138570000D03*
D18*
X151330000Y-128410000D03*
%TD*%
D27*
%TO.C,H4*%
X209550000Y-45720000D03*
%TD*%
D23*
%TO.C,S4*%
X207010000Y-71120000D03*
X207010000Y-68620000D03*
X207010000Y-66120000D03*
%TD*%
D17*
%TO.C,R6*%
X165100000Y-59055000D03*
D18*
X175260000Y-59055000D03*
%TD*%
D17*
%TO.C,R10*%
X165100000Y-83820000D03*
D18*
X175260000Y-83820000D03*
%TD*%
D10*
%TO.C,J8*%
X179070000Y-47752000D03*
X176570000Y-47752000D03*
X174070000Y-47752000D03*
%TD*%
D17*
%TO.C,C2*%
X68580000Y-64750000D03*
X68580000Y-62210000D03*
%TD*%
%TO.C,C1*%
X96246000Y-94234000D03*
X93706000Y-94234000D03*
%TD*%
D38*
%TO.C,U4*%
X124470000Y-119390000D03*
D39*
X121930000Y-119390000D03*
X119390000Y-119390000D03*
X119390000Y-127010000D03*
X121930000Y-127010000D03*
X124470000Y-127010000D03*
%TD*%
D11*
%TO.C,D2*%
X87630000Y-121920000D03*
D12*
X90170000Y-121920000D03*
%TD*%
D17*
%TO.C,R2*%
X114427000Y-111506000D03*
D18*
X124587000Y-111506000D03*
%TD*%
D40*
%TO.C,J3*%
X192445000Y-60690000D03*
X194945000Y-61940000D03*
X192445000Y-63190000D03*
X194945000Y-64440000D03*
X192445000Y-65690000D03*
X194945000Y-66940000D03*
X192445000Y-68190000D03*
X194945000Y-69440000D03*
X192445000Y-70690000D03*
X194945000Y-71940000D03*
X192445000Y-73190000D03*
X194945000Y-74440000D03*
X192445000Y-75690000D03*
X194945000Y-76940000D03*
X192445000Y-78190000D03*
X194945000Y-79440000D03*
X192445000Y-80690000D03*
X194945000Y-81940000D03*
X192445000Y-83190000D03*
X194945000Y-84440000D03*
X192445000Y-85690000D03*
X194945000Y-86940000D03*
X192445000Y-88190000D03*
X194945000Y-89440000D03*
%TD*%
M02*
