M48
; DRILL file {KiCad 7.0.6} date Sun Jul 16 08:27:07 2023
; FORMAT={-:-/ absolute / metric / decimal}
; #@! TF.CreationDate,2023-07-16T08:27:07+09:00
; #@! TF.GenerationSoftware,Kicad,Pcbnew,7.0.6
; #@! TF.FileFunction,MixedPlating,1,2
FMAT,2
METRIC
; #@! TA.AperFunction,Plated,PTH,ViaDrill
T1C0.400
; #@! TA.AperFunction,Plated,PTH,ComponentDrill
T2C0.700
; #@! TA.AperFunction,Plated,PTH,ComponentDrill
T3C0.750
; #@! TA.AperFunction,Plated,PTH,ComponentDrill
T4C0.762
; #@! TA.AperFunction,Plated,PTH,ComponentDrill
T5C0.800
; #@! TA.AperFunction,Plated,PTH,ComponentDrill
T6C0.900
; #@! TA.AperFunction,Plated,PTH,ComponentDrill
T7C1.000
; #@! TA.AperFunction,Plated,PTH,ComponentDrill
T8C1.020
; #@! TA.AperFunction,Plated,PTH,ComponentDrill
T9C1.100
; #@! TA.AperFunction,Plated,PTH,ComponentDrill
T10C1.200
; #@! TA.AperFunction,Plated,PTH,ComponentDrill
T11C2.800
; #@! TA.AperFunction,Plated,PTH,ComponentDrill
T12C3.041
; #@! TA.AperFunction,NonPlated,NPTH,ComponentDrill
T13C1.500
; #@! TA.AperFunction,NonPlated,NPTH,ComponentDrill
T14C1.800
; #@! TA.AperFunction,NonPlated,NPTH,ComponentDrill
T15C4.300
%
G90
G05
T1
X61.087Y-80.772
X61.087Y-97.79
X61.849Y-115.57
X62.738Y-52.324
X71.12Y-43.18
X87.503Y-105.156
X87.503Y-109.601
X90.297Y-97.536
X91.44Y-94.234
X92.385Y-106.002
X93.726Y-111.379
X93.853Y-60.833
X93.853Y-74.549
X95.123Y-90.297
X95.123Y-105.918
X96.012Y-115.443
X96.52Y-103.505
X98.552Y-99.949
X98.933Y-111.379
X99.187Y-114.935
X99.568Y-97.028
X99.843Y-107.931
X100.584Y-100.965
X102.997Y-99.187
X104.521Y-100.838
X104.521Y-106.426
X104.521Y-111.379
X106.045Y-98.171
X106.68Y-56.769
X106.934Y-60.833
X106.934Y-75.692
X106.934Y-108.827
X107.061Y-87.63
X107.061Y-94.615
X107.315Y-99.187
X107.696Y-104.394
X107.696Y-111.379
X108.077Y-115.824
X109.474Y-73.152
X109.474Y-86.741
X109.601Y-58.42
X109.601Y-90.297
X109.601Y-100.33
X109.601Y-104.394
X109.601Y-107.442
X112.141Y-111.379
X113.03Y-114.427
X114.427Y-104.267
X115.824Y-58.547
X115.824Y-62.103
X115.824Y-64.643
X115.824Y-67.183
X115.824Y-69.85
X115.824Y-72.009
X115.824Y-74.676
X115.824Y-80.518
X115.824Y-84.963
X115.824Y-90.17
X118.364Y-95.504
X118.999Y-77.343
X119.253Y-114.427
X119.253Y-123.063
X119.634Y-93.472
X120.65Y-98.806
X121.285Y-111.252
X121.539Y-106.68
X121.92Y-123.063
X124.206Y-114.046
X124.46Y-123.063
X125.984Y-81.026
X126.746Y-108.458
X127.508Y-82.55
X127.889Y-63.373
X127.889Y-68.326
X128.27Y-73.279
X128.651Y-116.84
X131.953Y-114.173
X133.223Y-78.613
X133.223Y-84.328
X133.223Y-99.822
X133.35Y-96.266
X133.477Y-59.055
X133.604Y-69.85
X134.366Y-108.077
X135.382Y-109.093
X135.636Y-104.521
X137.668Y-53.213
X137.668Y-64.77
X137.668Y-77.216
X137.668Y-90.805
X137.668Y-96.393
X137.668Y-100.457
X138.684Y-108.331
X138.684Y-114.935
X140.462Y-99.187
X141.986Y-45.466
X142.718Y-104.594
X142.875Y-93.98
X142.875Y-101.473
X143.002Y-121.793
X149.225Y-61.214
X149.352Y-69.723
X149.479Y-118.11
X149.479Y-121.793
X149.86Y-80.645
X149.86Y-88.519
X149.86Y-94.615
X150.114Y-76.454
X150.368Y-45.593
X150.791Y-65.682
X151.511Y-71.247
X152.4Y-67.437
X154.051Y-92.964
X154.051Y-104.902
X154.178Y-73.66
X156.083Y-115.57
X157.607Y-117.729
X157.607Y-121.92
X160.782Y-93.726
X163.195Y-45.466
X163.449Y-116.84
X163.957Y-62.357
X163.957Y-67.183
X163.957Y-74.676
X164.084Y-102.489
X164.465Y-120.777
X164.719Y-81.026
X165.007Y-94.286
X168.148Y-86.487
X168.529Y-62.357
X168.529Y-67.056
X169.164Y-117.983
X169.291Y-45.466
X169.799Y-102.489
X170.691Y-111.173
X171.831Y-58.928
X171.831Y-65.151
X171.831Y-71.12
X171.831Y-74.803
X171.831Y-77.724
X172.085Y-91.948
X172.152Y-124.142
X172.339Y-83.82
X172.974Y-95.377
X174.498Y-101.092
X176.911Y-74.676
X177.038Y-98.552
X177.546Y-68.707
X177.673Y-77.597
X177.673Y-84.201
X177.673Y-87.122
X178.181Y-102.235
X179.451Y-82.55
X179.959Y-111.76
X179.959Y-113.665
X179.959Y-115.697
X179.959Y-118.364
X180.34Y-95.377
X181.356Y-129.286
X181.356Y-136.017
X181.483Y-98.806
X181.864Y-109.093
X184.785Y-90.678
X185.039Y-95.377
X187.071Y-80.264
X188.468Y-123.19
X188.468Y-125.603
X188.595Y-104.902
X189.484Y-90.678
X191.135Y-95.377
X192.913Y-98.679
X192.913Y-104.902
X194.818Y-96.012
X196.469Y-111.76
X196.469Y-113.665
X196.469Y-115.824
X196.469Y-118.237
X196.85Y-88.646
X198.247Y-64.516
X198.247Y-70.739
X198.628Y-103.886
X200.279Y-123.063
X200.279Y-125.476
X200.279Y-129.159
X200.914Y-106.426
X201.041Y-92.964
X201.041Y-98.933
X201.295Y-83.185
X203.2Y-76.581
X205.105Y-118.11
X205.105Y-120.777
X212.217Y-78.232
X212.344Y-87.122
X212.344Y-94.488
X212.344Y-101.219
X212.344Y-108.331
X212.344Y-115.951
X212.344Y-129.286
X212.471Y-122.682
T2
X137.16Y-130.81
X137.16Y-135.81
X182.88Y-59.01
X182.88Y-61.01
X182.88Y-63.01
X182.88Y-65.01
X182.88Y-67.01
X182.88Y-69.01
X182.88Y-71.01
X182.88Y-73.01
X182.88Y-75.01
X182.88Y-77.01
X182.88Y-79.01
X182.88Y-81.01
X182.88Y-83.01
X184.88Y-60.01
X184.88Y-62.01
X184.88Y-64.01
X184.88Y-66.01
X184.88Y-68.01
X184.88Y-70.01
X184.88Y-72.01
X184.88Y-74.01
X184.88Y-76.01
X184.88Y-78.01
X184.88Y-80.01
X184.88Y-82.01
X184.88Y-84.01
T3
X134.62Y-123.19
X135.89Y-123.19
X137.16Y-123.19
T4
X72.285Y-57.115
X72.285Y-59.655
X72.285Y-62.195
X72.285Y-64.735
X72.285Y-67.275
X72.285Y-69.815
X72.285Y-72.355
X72.285Y-74.895
X72.285Y-77.435
X97.9Y-118.16
X100.44Y-118.16
X102.98Y-118.16
X105.52Y-118.16
X108.06Y-118.16
X110.6Y-118.16
T5
X68.58Y-62.21
X68.58Y-64.75
X68.58Y-67.31
X68.58Y-69.85
X77.79Y-43.1
X87.95Y-43.1
X93.706Y-94.234
X96.246Y-94.234
X114.427Y-101.854
X114.427Y-106.604
X114.427Y-111.506
X119.39Y-119.39
X119.39Y-127.01
X121.93Y-119.39
X121.93Y-127.01
X124.47Y-119.39
X124.47Y-127.01
X124.587Y-101.854
X124.587Y-106.604
X124.587Y-111.506
X130.81Y-52.705
X130.81Y-55.245
X130.81Y-57.785
X130.81Y-60.325
X130.81Y-62.865
X130.81Y-65.405
X130.81Y-67.945
X130.81Y-70.485
X130.81Y-73.025
X130.81Y-75.565
X130.81Y-78.105
X130.81Y-80.645
X130.81Y-83.185
X130.81Y-85.725
X130.81Y-88.265
X130.81Y-90.805
X130.81Y-93.345
X130.81Y-95.885
X130.81Y-98.425
X130.81Y-100.965
X130.81Y-103.505
X130.81Y-106.045
X130.81Y-108.585
X130.81Y-111.125
X146.05Y-52.705
X146.05Y-55.245
X146.05Y-57.785
X146.05Y-60.325
X146.05Y-62.865
X146.05Y-65.405
X146.05Y-67.945
X146.05Y-70.485
X146.05Y-73.025
X146.05Y-75.565
X146.05Y-78.105
X146.05Y-80.645
X146.05Y-83.185
X146.05Y-85.725
X146.05Y-88.265
X146.05Y-90.805
X146.05Y-93.345
X146.05Y-95.885
X146.05Y-98.425
X146.05Y-100.965
X146.05Y-103.505
X146.05Y-106.045
X146.05Y-108.585
X146.05Y-111.125
X151.33Y-128.41
X151.33Y-138.57
X156.21Y-57.11
X156.21Y-59.65
X156.21Y-62.19
X156.21Y-64.73
X156.21Y-67.27
X156.21Y-69.81
X156.21Y-72.35
X156.21Y-74.89
X156.21Y-77.43
X156.21Y-79.97
X156.21Y-82.51
X156.21Y-85.05
X156.21Y-87.59
X156.21Y-90.13
X156.21Y-92.67
X156.21Y-95.21
X156.21Y-97.75
X158.75Y-57.11
X158.75Y-59.65
X158.75Y-62.19
X158.75Y-64.73
X158.75Y-67.27
X158.75Y-69.81
X158.75Y-72.35
X158.75Y-74.89
X158.75Y-77.43
X158.75Y-79.97
X158.75Y-82.51
X158.75Y-85.05
X158.75Y-87.59
X158.75Y-90.13
X158.75Y-92.67
X158.75Y-95.21
X158.75Y-97.75
X165.1Y-59.055
X165.1Y-64.77
X165.1Y-71.12
X165.1Y-77.47
X165.1Y-83.82
X165.1Y-92.075
X165.1Y-107.95
X165.1Y-110.49
X175.26Y-59.055
X175.26Y-64.77
X175.26Y-71.12
X175.26Y-77.47
X175.26Y-83.82
X175.26Y-92.075
X192.445Y-60.69
X192.445Y-63.19
X192.445Y-65.69
X192.445Y-68.19
X192.445Y-70.69
X192.445Y-73.19
X192.445Y-75.69
X192.445Y-78.19
X192.445Y-80.69
X192.445Y-83.19
X192.445Y-85.69
X192.445Y-88.19
X194.945Y-61.94
X194.945Y-64.44
X194.945Y-66.94
X194.945Y-69.44
X194.945Y-71.94
X194.945Y-74.44
X194.945Y-76.94
X194.945Y-79.44
X194.945Y-81.94
X194.945Y-84.44
X194.945Y-86.94
X194.945Y-89.44
X196.215Y-46.665
X196.215Y-50.165
T6
X87.63Y-121.92
X87.63Y-137.16
X90.17Y-121.92
X90.17Y-137.16
X119.42Y-138.43
X121.92Y-138.43
X124.42Y-138.43
X174.03Y-107.06
X174.03Y-109.56
X174.03Y-112.06
X174.03Y-114.56
X174.03Y-117.06
X174.03Y-119.56
X174.03Y-122.06
X174.03Y-124.56
X174.03Y-127.06
X174.03Y-129.56
X174.03Y-132.06
X174.03Y-134.56
X176.53Y-108.31
X176.53Y-110.81
X176.53Y-113.31
X176.53Y-115.81
X176.53Y-118.31
X176.53Y-120.81
X176.53Y-123.31
X176.53Y-125.81
X176.53Y-128.31
X176.53Y-130.81
X176.53Y-133.31
X176.53Y-135.81
X207.01Y-66.12
X207.01Y-68.62
X207.01Y-71.12
X207.01Y-87.59
X207.01Y-90.13
X207.01Y-92.67
X207.01Y-95.21
X207.01Y-97.75
X207.01Y-100.29
X207.01Y-102.83
X207.01Y-105.37
X207.01Y-107.91
X207.01Y-110.45
X207.01Y-112.99
X207.01Y-115.53
X207.01Y-118.07
X207.01Y-120.61
X207.01Y-123.15
X207.01Y-125.69
X207.01Y-128.23
X209.55Y-87.59
X209.55Y-90.13
X209.55Y-92.67
X209.55Y-95.21
X209.55Y-97.75
X209.55Y-100.29
X209.55Y-102.83
X209.55Y-105.37
X209.55Y-107.91
X209.55Y-110.45
X209.55Y-112.99
X209.55Y-115.53
X209.55Y-118.07
X209.55Y-120.61
X209.55Y-123.15
X209.55Y-125.69
X209.55Y-128.23
T7
X75.49Y-112.99
X75.49Y-117.49
X75.49Y-123.44
X75.49Y-127.94
X75.49Y-133.6
X75.49Y-138.1
X81.99Y-112.99
X81.99Y-117.49
X81.99Y-123.44
X81.99Y-127.94
X81.99Y-133.6
X81.99Y-138.1
X132.1Y-46.33
X134.64Y-46.33
X174.07Y-47.752
X176.57Y-47.752
X179.07Y-47.752
T8
X104.14Y-46.95
X104.14Y-49.49
X104.14Y-52.03
X104.14Y-54.57
X104.14Y-57.11
X104.14Y-59.65
X104.14Y-62.19
X104.14Y-64.73
X104.14Y-67.27
X104.14Y-69.81
X104.14Y-72.35
X104.14Y-74.89
X104.14Y-77.43
X104.14Y-79.97
X104.14Y-82.51
X104.14Y-85.05
X104.14Y-87.59
X104.14Y-90.13
X104.14Y-92.67
X104.14Y-95.21
X110.49Y-94.98
X113.03Y-94.98
X115.57Y-94.98
X121.92Y-46.95
X121.92Y-49.49
X121.92Y-52.03
X121.92Y-54.57
X121.92Y-57.11
X121.92Y-59.65
X121.92Y-62.19
X121.92Y-64.73
X121.92Y-67.27
X121.92Y-69.81
X121.92Y-72.35
X121.92Y-74.89
X121.92Y-77.43
X121.92Y-79.97
X121.92Y-82.51
X121.92Y-85.05
X121.92Y-87.59
X121.92Y-90.13
X121.92Y-92.67
X121.92Y-95.21
T9
X86.24Y-97.31
X86.24Y-99.81
X86.24Y-102.31
X146.05Y-128.23
X146.05Y-138.39
T11
X208.79Y-81.76
X208.79Y-134.06
T12
X78.74Y-94.21
X78.74Y-105.41
T13
X110.605Y-50.11
X115.455Y-50.11
T14
X110.305Y-47.08
X115.755Y-47.08
T15
X64.77Y-45.72
X64.77Y-137.16
X199.39Y-137.16
X209.55Y-45.72
T7
G00X75.035Y-84.585
M15
G01X75.035Y-85.985
M16
G05
G00X75.045Y-48.605
M15
G01X75.045Y-50.005
M16
G05
T10
G00X203.55Y-58.35
M15
G01X203.55Y-55.95
M16
G05
G00X207.48Y-52.25
M15
G01X205.52Y-52.25
M16
G05
G00X209.55Y-58.13
M15
G01X209.55Y-56.17
M16
G05
T0
M30
